<svg id="Camada_1" data-name="Camada 1" xmlns="http://www.w3.org/2000/svg" xmlns:xlink="http://www.w3.org/1999/xlink" viewBox="0 0 713 487.5"><defs><style>.cls-1{fill:#7086b2;}.cls-1,.cls-3{opacity:0.9;}.cls-2{fill:#859dd1;opacity:0.85;}.cls-3{fill:#aebadf;}.cls-4,.cls-5,.cls-6{opacity:0.75;}.cls-4{fill:url(#Gradiente_sem_nome_19);}.cls-5{fill:url(#Gradiente_sem_nome_21);}.cls-6{fill:url(#Gradiente_sem_nome_24);}.cls-7,.cls-8{fill:#4b5f87;stroke:#4b5f87;stroke-miterlimit:10;}.cls-7{stroke-width:2px;}.cls-8{stroke-width:3px;}</style><linearGradient id="Gradiente_sem_nome_19" x1="64.18" y1="139.53" x2="406.8" y2="422.98" gradientUnits="userSpaceOnUse"><stop offset="0" stop-color="#fff" stop-opacity="0.1"/><stop offset="0.04" stop-color="#f0f2f7" stop-opacity="0.16"/><stop offset="0.2" stop-color="#c2cbde" stop-opacity="0.36"/><stop offset="0.36" stop-color="#9eadcb" stop-opacity="0.51"/><stop offset="0.53" stop-color="#8497bd" stop-opacity="0.62"/><stop offset="0.7" stop-color="#758ab5" stop-opacity="0.68"/><stop offset="0.91" stop-color="#7086b2" stop-opacity="0.7"/></linearGradient><linearGradient id="Gradiente_sem_nome_21" x1="241.74" y1="151.82" x2="470.8" y2="341.32" gradientUnits="userSpaceOnUse"><stop offset="0" stop-color="#fff" stop-opacity="0.1"/><stop offset="0.12" stop-color="#dfe5f3" stop-opacity="0.26"/><stop offset="0.26" stop-color="#becbe7" stop-opacity="0.42"/><stop offset="0.41" stop-color="#a5b7dd" stop-opacity="0.54"/><stop offset="0.56" stop-color="#93a8d6" stop-opacity="0.63"/><stop offset="0.72" stop-color="#88a0d2" stop-opacity="0.68"/><stop offset="0.91" stop-color="#859dd1" stop-opacity="0.7"/></linearGradient><linearGradient id="Gradiente_sem_nome_24" x1="365.01" y1="286.3" x2="545.87" y2="435.92" gradientUnits="userSpaceOnUse"><stop offset="0" stop-color="#fff" stop-opacity="0.1"/><stop offset="0.01" stop-color="#fdfefe" stop-opacity="0.11"/><stop offset="0.14" stop-color="#e5e9f5" stop-opacity="0.29"/><stop offset="0.28" stop-color="#d1d8ed" stop-opacity="0.44"/><stop offset="0.42" stop-color="#c2cbe7" stop-opacity="0.55"/><stop offset="0.57" stop-color="#b7c1e2" stop-opacity="0.64"/><stop offset="0.73" stop-color="#b0bce0" stop-opacity="0.68"/><stop offset="0.91" stop-color="#aebadf" stop-opacity="0.7"/></linearGradient></defs><title>Sem título-1</title><path class="cls-1" d="M352.89,480.81c-33.62-.49-189-8.55-287.85-113.14-36.73-38.88-58.9-89.48-61-142.93-1-24.81,2.2-52.43,13.87-79.43,0,0,33-97,152-106,0,0,139-12,169,115a293.62,293.62,0,0,1,2.11,61.17A687.79,687.79,0,0,0,341.69,326c4.52,50.22,11.63,112.14,21,141.67a10.08,10.08,0,0,1-.51,7.37h0A10.13,10.13,0,0,1,352.89,480.81Z"/><path class="cls-2" d="M346.71,478.35c-22.93-20.56-125.45-119.57-130.83-251.24-2-48.95,13.12-97.23,43.82-135.4C274,74,292.75,56.81,317,45.17c0,0,81.12-47.17,168.74,18.16,0,0,103.24,75.29,47.61,181.06a268.92,268.92,0,0,1-35.32,43.53,629.92,629.92,0,0,0-66,76.72c-27.07,37.41-59.39,84.46-70.66,110.5a9.23,9.23,0,0,1-4.78,4.78h0A9.27,9.27,0,0,1,346.71,478.35Z"/><path class="cls-3" d="M348.63,475c-5.31-23.12-25.87-130.95,29.19-216.2,20.47-31.69,51.42-55.37,87.69-65.77,16.84-4.83,36.29-7.29,56.74-3.83,0,0,72,6.33,98.14,86.34,0,0,31.56,93.22-50.42,135.09a207.12,207.12,0,0,1-41.56,11.71,485.16,485.16,0,0,0-75.59,19c-33.65,11.53-74.88,26.79-93.53,38.18a7.11,7.11,0,0,1-5.13.89h0A7.14,7.14,0,0,1,348.63,475Z"/><path class="cls-4" d="M352.87,482.71c-30.93-.45-173.9-7.87-264.8-104.08C54.28,342.87,33.89,296.31,32,247.15c-.89-22.83,2-48.23,12.76-73.07,0,0,30.36-89.23,139.83-97.51,0,0,127.87-11,155.47,105.79A270.11,270.11,0,0,1,342,238.63a632.71,632.71,0,0,0,.59,101.64c4.16,46.2,10.7,103.16,19.33,130.32a9.27,9.27,0,0,1-.47,6.78h0A9.32,9.32,0,0,1,352.87,482.71Z"/><path class="cls-5" d="M344.18,480.44c-21.09-18.91-115.4-110-120.35-231.12-1.84-45,12.07-89.45,40.31-124.56,13.11-16.3,30.4-32.1,52.75-42.81,0,0,74.63-43.39,155.23,16.71,0,0,95,69.26,43.79,166.56a247.39,247.39,0,0,1-32.5,40,579.48,579.48,0,0,0-60.71,70.57c-24.9,34.42-54.64,77.7-65,101.66a8.49,8.49,0,0,1-4.4,4.4h0A8.53,8.53,0,0,1,344.18,480.44Z"/><path class="cls-6" d="M345.95,477.38c-4.88-21.27-23.8-120.46,26.86-198.89,18.83-29.15,47.3-50.94,80.67-60.5,15.49-4.44,33.38-6.71,52.2-3.52,0,0,66.23,5.82,90.28,79.43,0,0,29,85.75-46.38,124.27a190.53,190.53,0,0,1-38.23,10.78,446.31,446.31,0,0,0-69.54,17.47c-31,10.61-68.88,24.65-86,35.12a6.54,6.54,0,0,1-4.72.82h0A6.57,6.57,0,0,1,345.95,477.38Z"/><path class="cls-7" d="M613.67,9.9a16.22,16.22,0,0,0-23.89.37l-.27.3c-3.93,4.37-7.79,8.76-11.53,13.22-7.66,8.81-14.86,17.92-22.19,26.91C548.7,59.89,541.52,69,534.65,78.3s-13.77,18.6-20.25,28.17-13.17,19-19.42,28.69l-18.61,29.18-17.54,29.8c-3,4.92-5.76,10-8.45,15.07l-8.19,15.2L434,239.6l-7.62,15.49c-5,10.36-10.2,20.6-15,31-9.06,21.14-18.82,41.9-26.55,63.53-17.08,42.57-29.54,86.75-40.91,130.89,14.63-43.24,30.21-86.06,50.22-126.91,9.2-20.76,20.38-40.57,30.8-60.66,5.48-9.91,11.36-19.62,17-29.42l8.59-14.63,9.14-14.31,9.13-14.29c3-4.79,6.08-9.52,9.36-14.13l19.26-27.87,20.14-27.2c6.74-9,13.92-17.74,20.85-26.61s14.4-17.31,21.56-26,14.85-16.87,22.3-25.26C590,65.1,597.52,56.81,605.4,48.93c3.88-4,7.83-7.93,11.81-11.78l.12-.12a16.29,16.29,0,0,0,.44-22.83Z"/><path class="cls-7" d="M350.69,482.44a512.14,512.14,0,0,1-44.1-67.74,494.25,494.25,0,0,1-33.32-74.09c-4.49-12.85-8.29-26-11.49-39.26a336.73,336.73,0,0,1-7-40.56,289,289,0,0,1-1.39-41.45,253.43,253.43,0,0,1,3.48-31.83,9.18,9.18,0,0,1,11.26-7.33h0a9.17,9.17,0,0,1,6.71,11,236,236,0,0,0-5,29.35,273.67,273.67,0,0,0-1,39.17A323.74,323.74,0,0,0,273.35,299c2.34,13,5.28,26,8.93,38.78a487.19,487.19,0,0,0,28.52,74.8A509.85,509.85,0,0,0,350.69,482.44Z"/><path class="cls-8" d="M438.33,357q-6.33,0-6.32-5.89t6.32-5.89q6.32,0,6.32,5.89T438.33,357Zm3.49,24v97.89h-7V381ZM549.51,474v6.1a36.9,36.9,0,0,1-26.38-10.36q-10.9-10.35-10.9-26.49v-102h7V381h30.09v6.1H519.21V443.3q0,13.3,8.83,22A29.41,29.41,0,0,0,549.51,474Zm158.93-93.31v98.11h-7V454.42A45.85,45.85,0,0,1,683.15,474,50.68,50.68,0,0,1,657,481.24a50.11,50.11,0,0,1-36.63-15.15q-15.26-15.15-15.26-36.3t15.26-36.3A50.13,50.13,0,0,1,657,378.34a52.42,52.42,0,0,1,26.71,7.41q12.75,7.41,17.77,19.62V380.73ZM612.08,430q0,18.31,13.41,31.72t31.83,13.41a42.43,42.43,0,0,0,31.5-13.41,44,44,0,0,0,13.08-31.83q0-18.42-13.19-31.94t-31.5-13.52q-18.31,0-31.72,13.63T612.08,430Z"/></svg>