<svg id="Camada_1" data-name="Camada 1" xmlns="http://www.w3.org/2000/svg" viewBox="0 0 895.33 387.33"><defs><style>.cls-1{fill:#4b5f87;stroke:#4b5f87;stroke-miterlimit:10;stroke-width:2px;}</style></defs><title>Sem tiÌtulo-1</title><path class="cls-1" d="M29.22,321l24.43,50H51.37l-9.25-18.63H16L6.88,371h-2Zm-.2,4.49-12.18,25H41.34Zm54,44.1v1.82a11,11,0,0,1-7.88-3.09,10.43,10.43,0,0,1-3.26-7.91V329.91H74v11.85h9v1.82H74V360.4A9,9,0,0,0,83,369.58Zm32.89,2.21h-.58a14.65,14.65,0,0,1-10.78-4.66A15,15,0,0,1,100,356.3a14.59,14.59,0,0,1,4.56-10.71,15.37,15.37,0,0,1,11.27-4.53,15,15,0,0,1,11.53,5.34l-20.45,20.19Q111.1,370,115,370a13.71,13.71,0,0,0,7-1.79,15.41,15.41,0,0,0,5.11-4.79v3.32A14.61,14.61,0,0,1,115.92,371.8Zm-.68-28.92A13.71,13.71,0,0,0,102,356.1a13.34,13.34,0,0,0,3.45,9.12l19-18.82A13.64,13.64,0,0,0,115.24,342.88ZM148.62,371h-2.08V341.7h2.08v5.93Q151.94,341,160,341a12.37,12.37,0,0,1,9.18,3.78,12.62,12.62,0,0,1,3.71,9.18V371h-2.08V354a11,11,0,0,0-3.16-7.82,10.18,10.18,0,0,0-7.65-3.32,11,11,0,0,0-7.91,3.32,10.55,10.55,0,0,0-3.42,7.82Zm56.73,4.89v-4.3a14.44,14.44,0,0,1-9-5.34A15.75,15.75,0,0,1,192.72,356a14.21,14.21,0,0,1,4.56-10.36,15.29,15.29,0,0,1,11.2-4.53,15,15,0,0,1,11.33,5v3.32a15.11,15.11,0,0,0-5.11-4.75,13.55,13.55,0,1,0,0,23.58,14.88,14.88,0,0,0,5.11-4.82v3.39a14.62,14.62,0,0,1-11.27,5H208a4.27,4.27,0,0,1-1-.06v2.41h.65a4.89,4.89,0,0,1,3.55,1.43,4.58,4.58,0,0,1,1.47,3.39v.26a4.53,4.53,0,0,1-1.43,3.35,4.92,4.92,0,0,1-3.58,1.4h-2.28v-1.63h2.28a3.42,3.42,0,0,0,2.47-.94,3.22,3.22,0,0,0,0-4.62,3.41,3.41,0,0,0-2.47-.94Zm63.57-34.2V371h-2.08v-7.3a13.71,13.71,0,0,1-5.47,5.86,15.15,15.15,0,0,1-7.82,2.15,15,15,0,0,1-10.94-4.53,15.18,15.18,0,0,1,0-21.69A15,15,0,0,1,253.56,341a15.66,15.66,0,0,1,8,2.21,12,12,0,0,1,5.31,5.86V341.7Zm-28.79,14.72a13.68,13.68,0,0,0,13.52,13.48,12.67,12.67,0,0,0,9.41-4,13.52,13.52,0,0,0,0-19.05,12.7,12.7,0,0,0-9.41-4,12.86,12.86,0,0,0-9.48,4.07A13.17,13.17,0,0,0,240.14,356.43Zm19.41-21a11.57,11.57,0,0,1-5.11-1.79,11.2,11.2,0,0,0-5.18-1.76q-2,0-4,3.48h-2q2.54-5.21,6.19-5.21H250a10.26,10.26,0,0,1,4.88,1.73,10.16,10.16,0,0,0,4.72,1.73q1.79,0,3.81-3.19h2Q262.35,335.39,259.55,335.39Zm33.74,31.69a15.13,15.13,0,0,1-4.49-10.85,14.6,14.6,0,0,1,4.56-10.72,15.53,15.53,0,0,1,21.92,0,14.69,14.69,0,0,1,4.53,10.75,15.18,15.18,0,0,1-4.43,10.85,14.33,14.33,0,0,1-10.75,4.63H304A14.42,14.42,0,0,1,293.29,367.08Zm24.43-10.68a13.21,13.21,0,0,0-3.94-9.54,12.7,12.7,0,0,0-9.41-4,12.86,12.86,0,0,0-9.48,4.07,13.17,13.17,0,0,0-4,9.54,13.68,13.68,0,0,0,13.52,13.48,12.67,12.67,0,0,0,9.41-4A13.16,13.16,0,0,0,317.72,356.39Zm63.54,7.85a24.78,24.78,0,0,1-7.39-17.82,24.08,24.08,0,0,1,7.49-17.65,25.36,25.36,0,0,1,35.89,0,24.15,24.15,0,0,1,7.43,17.69,24.8,24.8,0,0,1-7.36,17.85,23.65,23.65,0,0,1-17.59,7.59h-1A23.56,23.56,0,0,1,381.26,364.24Zm41.27-17.69a22.59,22.59,0,0,0-6.81-16.48,23.08,23.08,0,0,0-32.86,0,23.31,23.31,0,0,0,0,33,23,23,0,0,0,32.83,0A22.64,22.64,0,0,0,422.53,346.56Zm51.26-24.4V371h-2.08v-7.1a14.43,14.43,0,0,1-5.67,5.7,15.21,15.21,0,0,1-7.62,2.12,14.94,14.94,0,0,1-11-4.53,15.26,15.26,0,0,1,0-21.69,14.94,14.94,0,0,1,11-4.53,15.43,15.43,0,0,1,7.78,2.15,13.32,13.32,0,0,1,5.5,5.73V322.16ZM445,356.39a13.16,13.16,0,0,0,3.91,9.51,12.67,12.67,0,0,0,9.41,4,13.68,13.68,0,0,0,13.52-13.48,13.17,13.17,0,0,0-4-9.54,12.86,12.86,0,0,0-9.48-4.07,12.7,12.7,0,0,0-9.41,4A13.21,13.21,0,0,0,445,356.39Zm52.5,10.68A15.13,15.13,0,0,1,493,356.23a14.6,14.6,0,0,1,4.56-10.72,15.53,15.53,0,0,1,21.92,0A14.69,14.69,0,0,1,524,356.26a15.18,15.18,0,0,1-4.43,10.85,14.33,14.33,0,0,1-10.75,4.63h-.59A14.42,14.42,0,0,1,497.5,367.08Zm24.43-10.68a13.21,13.21,0,0,0-3.94-9.54,12.7,12.7,0,0,0-9.41-4,12.86,12.86,0,0,0-9.48,4.07,13.17,13.17,0,0,0-4,9.54,13.68,13.68,0,0,0,13.52,13.48,12.67,12.67,0,0,0,9.41-4A13.16,13.16,0,0,0,521.93,356.39ZM545.31,371h-2.08V341.7h2.08v5.93q3.32-6.65,11.33-6.64a12.37,12.37,0,0,1,9.18,3.78,12.62,12.62,0,0,1,3.71,9.18V371h-2.08V354a11,11,0,0,0-3.16-7.82,10.18,10.18,0,0,0-7.65-3.32,11,11,0,0,0-7.91,3.32,10.55,10.55,0,0,0-3.42,7.82Zm55.56-1.43v1.82a11,11,0,0,1-7.88-3.09,10.43,10.43,0,0,1-3.26-7.91V329.91h2.08v11.85h9v1.82h-9V360.4a9,9,0,0,0,9.05,9.18Zm21.1-2.51a15.13,15.13,0,0,1-4.49-10.85A14.6,14.6,0,0,1,622,345.51a15.53,15.53,0,0,1,21.92,0,14.69,14.69,0,0,1,4.53,10.75,15.18,15.18,0,0,1-4.43,10.85,14.33,14.33,0,0,1-10.75,4.63h-.59A14.42,14.42,0,0,1,622,367.08Zm24.43-10.68a13.21,13.21,0,0,0-3.94-9.54,12.7,12.7,0,0,0-9.41-4,12.86,12.86,0,0,0-9.48,4.07,13.17,13.17,0,0,0-4,9.54,13.68,13.68,0,0,0,13.52,13.48,12.67,12.67,0,0,0,9.41-4A13.16,13.16,0,0,0,646.4,356.39Zm32.44,13.39v1.82a11,11,0,0,1-7.88-3.09,10.43,10.43,0,0,1-3.26-7.91V322.16h2.08v38.43a9,9,0,0,0,9.05,9.18Zm19.15-2.7a15.13,15.13,0,0,1-4.49-10.85,14.6,14.6,0,0,1,4.56-10.72,15.53,15.53,0,0,1,21.92,0,14.69,14.69,0,0,1,4.53,10.75,15.17,15.17,0,0,1-4.43,10.85,14.33,14.33,0,0,1-10.75,4.63h-.58A14.42,14.42,0,0,1,698,367.08Zm24.43-10.68a13.21,13.21,0,0,0-3.94-9.54,12.7,12.7,0,0,0-9.41-4,12.86,12.86,0,0,0-9.48,4.07,13.17,13.17,0,0,0-4,9.54,13.68,13.68,0,0,0,13.52,13.48,12.67,12.67,0,0,0,9.41-4A13.16,13.16,0,0,0,722.42,356.39Zm-10.23-27.33h2.67l-9.05,7.49h-2.74ZM771.6,341.7h2.08v26.58q0,7.56-4.17,11.92a14.45,14.45,0,0,1-10.94,4.36,16.5,16.5,0,0,1-7.23-1.69,14,14,0,0,1-5.47-4.43v-3a13.47,13.47,0,0,0,5.31,5.21,14.63,14.63,0,0,0,7.39,2.08,12.31,12.31,0,0,0,9.38-3.88q3.65-3.88,3.65-10.59v-4.36a13.26,13.26,0,0,1-5.54,5.73,15.61,15.61,0,0,1-7.82,2.15,15,15,0,0,1-10.94-4.53,15.18,15.18,0,0,1,0-21.69,15,15,0,0,1,10.94-4.53,15.62,15.62,0,0,1,7.91,2.12A13.06,13.06,0,0,1,771.6,349Zm-26.77,14.72A13.68,13.68,0,0,0,758.34,370a12.67,12.67,0,0,0,9.41-4,13.6,13.6,0,0,0,0-19.09,12.68,12.68,0,0,0-9.41-4,13.68,13.68,0,0,0-13.52,13.55Zm51.59-21.82q-1.89,0-1.89-1.76t1.89-1.76q1.89,0,1.89,1.76T796.42,334.6Zm1,7.16V371h-2.08V341.77Zm35.89,30.09h-.59A14.46,14.46,0,0,1,822,367.24a15.06,15.06,0,0,1-4.49-10.85,14.63,14.63,0,0,1,4.56-10.75,15.28,15.28,0,0,1,11.2-4.53,15,15,0,0,1,11.33,5v3.32a15.11,15.11,0,0,0-5.11-4.75,13.55,13.55,0,1,0,0,23.58,14.88,14.88,0,0,0,5.11-4.82v3.39A14.63,14.63,0,0,1,833.35,371.86Zm59.08-30.16V371h-2.08v-7.3a13.71,13.71,0,0,1-5.47,5.86,15.14,15.14,0,0,1-7.82,2.15,15,15,0,0,1-10.94-4.53,15.18,15.18,0,0,1,0-21.69A15,15,0,0,1,877.06,341a15.67,15.67,0,0,1,8,2.21,12,12,0,0,1,5.31,5.86V341.7Zm-28.79,14.72a13.68,13.68,0,0,0,13.52,13.48,12.67,12.67,0,0,0,9.41-4,13.52,13.52,0,0,0,0-19.05,12.7,12.7,0,0,0-9.41-4,12.86,12.86,0,0,0-9.48,4.07A13.17,13.17,0,0,0,863.64,356.43Z"/><path class="cls-1" d="M196,72.59h11.12L122.4,250.09,37.3,72.59H50.71L123.55,224Z"/><path class="cls-1" d="M346.67,30.8q-11.12,0-11.12-10.35T346.67,10.1q11.11,0,11.12,10.35T346.67,30.8ZM352.81,73V245.1H340.54V73Z"/><path class="cls-1" d="M561.36,236.67V247.4q-27.23,0-46.39-18.21T495.8,182.62V3.2h12.27V73H561V83.71H508.07v98.91q0,23.39,15.53,38.72T561.36,236.67Z"/><path class="cls-1" d="M860,72.59V245.1H847.73V202.17a80.63,80.63,0,0,1-32.2,34.5,89.13,89.13,0,0,1-46,12.65q-37.58,0-64.41-26.64t-26.83-63.83q0-37.18,26.83-63.83t64.41-26.65q24.53,0,47,13t31.24,34.5V72.59ZM690.55,159.23q0,32.2,23.58,55.78t56,23.58q32.39,0,55.4-23.58t23-56q0-32.39-23.19-56.16t-55.4-23.77q-32.2,0-55.78,24T690.55,159.23Z"/></svg>